<svg xmlns="http://www.w3.org/2000/svg" viewBox="0 0 128 128" fill="none">
  <defs>
    <linearGradient id="bg" x1="0" y1="0" x2="128" y2="128" gradientUnits="userSpaceOnUse">
      <stop stop-color="#0F4F68"/>
      <stop offset="1" stop-color="#3DB8C9"/>
    </linearGradient>
    <linearGradient id="skin" x1="64" y1="34" x2="64" y2="92" gradientUnits="userSpaceOnUse">
      <stop stop-color="#FFE7D2"/>
      <stop offset="1" stop-color="#F6CFAE"/>
    </linearGradient>
    <clipPath id="round"><circle cx="64" cy="64" r="64"/></clipPath>
  </defs>
  <g clip-path="url(#round)">
    <rect width="128" height="128" fill="url(#bg)"/>
    <circle cx="64" cy="118" r="46" fill="#0c3d52" fill-opacity="0.35"/>
    <path d="M22 128c0-23 19-38 42-38s42 15 42 38v8H22z" fill="#F4F8FA"/>
    <path d="M40 96c0 14 11 22 24 22s24-8 24-22l-3-10H43z" fill="url(#skin)"/>
    <circle cx="64" cy="60" r="26" fill="url(#skin)"/>
    <path d="M38 58c0-18 12-30 26-30s26 12 26 30c0-6-4-9-7-10-3 6-10 9-19 9-7 0-10-2-12-5-6 1-9 6-9 11z" fill="#3A2A22"/>
    <circle cx="54" cy="60" r="2.6" fill="#3A2A22"/>
    <circle cx="74" cy="60" r="2.6" fill="#3A2A22"/>
    <path d="M58 72c2 2 8 2 10 0" stroke="#C98A63" stroke-width="2.4" stroke-linecap="round"/>
  </g>
</svg>
